<svg width="162" height="26" viewBox="0 0 162 26" fill="none" xmlns="http://www.w3.org/2000/svg">
<g clip-path="url(#clip0_2_6441)">
<path d="M149.04 15.8773L152.082 17.7406L151.255 14.2631L153.962 11.9372L150.409 11.6512L149.04 8.35025V15.8773ZM149.04 18.4166L142.692 22.3058L144.417 15.0474L138.769 10.1941L146.183 9.59825L149.04 2.70825L151.896 9.59825L159.312 10.1941L153.662 15.0474L155.388 22.3058L149.04 18.4166Z" fill="#FF5300"/>
</g>
<g clip-path="url(#clip1_2_6441)">
<path d="M12.9598 18.4166L6.61152 22.3058L8.33736 15.0474L2.68896 10.1941L10.1032 9.59825L12.9598 2.70825L15.8164 9.59825L23.2316 10.1941L17.5822 15.0474L19.308 22.3058L12.9598 18.4166Z" fill="#FF5300"/>
</g>
<g clip-path="url(#clip2_2_6441)">
<path d="M46.9798 18.4166L40.6315 22.3058L42.3574 15.0474L36.709 10.1941L44.1232 9.59825L46.9798 2.70825L49.8364 9.59825L57.2517 10.1941L51.6022 15.0474L53.328 22.3058L46.9798 18.4166Z" fill="#FF5300"/>
</g>
<g clip-path="url(#clip3_2_6441)">
<path d="M80.9998 18.4166L74.6516 22.3058L76.3774 15.0474L70.729 10.1941L78.1432 9.59825L80.9998 2.70825L83.8564 9.59825L91.2717 10.1941L85.6222 15.0474L87.348 22.3058L80.9998 18.4166Z" fill="#FF5300"/>
</g>
<g clip-path="url(#clip4_2_6441)">
<path d="M115.02 18.4166L108.672 22.3058L110.397 15.0474L104.749 10.1941L112.163 9.59825L115.02 2.70825L117.876 9.59825L125.292 10.1941L119.642 15.0474L121.368 22.3058L115.02 18.4166Z" fill="#FF5300"/>
</g>
<defs>
<clipPath id="clip0_2_6441">
<rect width="25.92" height="26" fill="white" transform="translate(136.08)"/>
</clipPath>
<clipPath id="clip1_2_6441">
<rect width="25.92" height="26" fill="white"/>
</clipPath>
<clipPath id="clip2_2_6441">
<rect width="25.92" height="26" fill="white" transform="translate(34.02)"/>
</clipPath>
<clipPath id="clip3_2_6441">
<rect width="25.92" height="26" fill="white" transform="translate(68.04)"/>
</clipPath>
<clipPath id="clip4_2_6441">
<rect width="25.92" height="26" fill="white" transform="translate(102.06)"/>
</clipPath>
</defs>
</svg>
